<svg xmlns="http://www.w3.org/2000/svg" xmlns:xlink="http://www.w3.org/1999/xlink" viewBox="0,0,256,256" width="64px" height="64px" fill-rule="nonzero"><g fill="#151cd8" fill-rule="nonzero" stroke="none" stroke-width="1" stroke-linecap="butt" stroke-linejoin="miter" stroke-miterlimit="10" stroke-dasharray="" stroke-dashoffset="0" font-family="none" font-weight="none" font-size="none" text-anchor="none" style="mix-blend-mode: normal"><g transform="scale(3.55556,3.55556)"><path d="M29.5,14c-14.375,0 -15.5,1.125 -15.5,15.5v13c0,14.375 1.125,15.5 15.5,15.5h13c14.375,0 15.5,-1.125 15.5,-15.5v-13c0,-14.375 -1.125,-15.5 -15.5,-15.5zM26,22h20c3.71,0 4,0.29 4,4v20c0,3.71 -0.29,4 -4,4h-20c-3.71,0 -4,-0.29 -4,-4v-20c0,-3.71 0.29,-4 4,-4zM28.12109,24.55078c-1.34,0 -2.42578,1.08583 -2.42578,2.42383c0,1.338 1.08378,2.42578 2.42578,2.42578c1.338,0 2.42578,-1.08678 2.42578,-2.42578c0,-1.337 -1.08878,-2.42383 -2.42578,-2.42383zM40.82031,30.98242c-2.024,0 -3.3815,1.11011 -3.9375,2.16211h-0.05664v-1.82812h-3.99023v13.38867h4.15625v-6.625c0,-1.746 0.33305,-3.43555 2.49805,-3.43555c2.134,0 2.16211,1.99583 2.16211,3.54883v6.51172h4.1582h0.00195v-7.34375c0,-3.605 -0.77919,-6.37891 -4.99219,-6.37891zM26.03906,31.31641v13.38867h4.16211v-13.38867z"></path></g></g></svg>